<svg xmlns="http://www.w3.org/2000/svg" viewBox="0 0 389.23 61.33"><defs><style>.cls-1{fill:#fff;}</style></defs><g id="Layer_2" data-name="Layer 2"><g id="Layer_1-2" data-name="Layer 1"><path class="cls-1" d="M.69,52.73A5,5,0,0,1,0,50.23a3.74,3.74,0,0,1,.44-1.79,3.49,3.49,0,0,1,1.23-1.3,3.64,3.64,0,0,1,2.06-.59,5.87,5.87,0,0,1,4,1.77,9.8,9.8,0,0,0,4,3.26,13.08,13.08,0,0,0,5.73,1.25,11.31,11.31,0,0,0,3-.39A8.25,8.25,0,0,0,23,51.31a4.69,4.69,0,0,0,2.35-4q0-2.35-3.87-4.42a27.57,27.57,0,0,0-3.12-1.32c-1.09-.39-2.51-.87-4.24-1.42Q11.23,39.05,9.22,38a19.61,19.61,0,0,1-3.63-2.33,10.45,10.45,0,0,1-4.17-8.53,11.85,11.85,0,0,1,1.23-5.43,12.17,12.17,0,0,1,3.43-4.14,15.79,15.79,0,0,1,5-2.55,20.5,20.5,0,0,1,6.13-.88,22.81,22.81,0,0,1,8.29,1.42,10.79,10.79,0,0,1,5.84,4.81,5.11,5.11,0,0,1,.44,2,3.6,3.6,0,0,1-.93,2.5,3.7,3.7,0,0,1-2.75,1.32,2.92,2.92,0,0,1-1.42-.34,15.33,15.33,0,0,0-4.15-2.75,12.15,12.15,0,0,0-4.68-.83,11.51,11.51,0,0,0-5.65,1.13,4.25,4.25,0,0,0-2.3,3.82,3.32,3.32,0,0,0,.66,2.09,6,6,0,0,0,1.89,1.54,13.53,13.53,0,0,0,1.79.79c.7.26,1.55.55,2.55.86l1.94.61a56.72,56.72,0,0,1,6,2.18A20.45,20.45,0,0,1,29.29,38a11.14,11.14,0,0,1,4.51,9.22,12.08,12.08,0,0,1-1.23,5.37A13.13,13.13,0,0,1,29.14,57a17.07,17.07,0,0,1-5.25,2.92A19.15,19.15,0,0,1,17.51,61a22.88,22.88,0,0,1-9.66-1.92A14.1,14.1,0,0,1,.69,52.73Z"/><path class="cls-1" d="M50.77,23.26a4.06,4.06,0,0,0,3-1.29A3.76,3.76,0,0,0,55,19a4.3,4.3,0,0,0-1.25-3,4.2,4.2,0,0,0-3-1.28H42.51v8.5Z"/><path class="cls-1" d="M67.72,55.9l-.07-.27a4.11,4.11,0,0,0-4.07-3.08h0a15.19,15.19,0,0,1-5.81-1.13A14.47,14.47,0,0,1,53,48.31a13.53,13.53,0,0,1-3.27-4.65A14.29,14.29,0,0,1,48.53,38V23.26h1.36v-8.5H48.53V4.36a4.27,4.27,0,0,0-1.18-3.08,4.16,4.16,0,0,0-6,0A4.17,4.17,0,0,0,40.1,4.36V37.85a22.55,22.55,0,0,0,1.83,9,22.15,22.15,0,0,0,5,7.38,23.29,23.29,0,0,0,7.54,5,24,24,0,0,0,9,1.76h.32A4.07,4.07,0,0,0,67.72,55.9Z"/><path class="cls-1" d="M86.46,16.65A24.21,24.21,0,0,0,78.64,22a24.9,24.9,0,0,0-5.27,7.87,23.73,23.73,0,0,0-1.89,9.39V56.17a4,4,0,0,0,1.27,3,4.29,4.29,0,0,0,3.09,1.23,3.88,3.88,0,0,0,2.9-1.21,4.13,4.13,0,0,0,1.17-3V39.24A15.45,15.45,0,0,1,81.17,33a16,16,0,0,1,11.45-9.47,4.14,4.14,0,0,0,3.19-4.1h0a4.29,4.29,0,0,0-5.3-4.13A24.52,24.52,0,0,0,86.46,16.65Z"/><path class="cls-1" d="M339.86,16.65A24.25,24.25,0,0,0,332,22a25.24,25.24,0,0,0-5.27,7.87,23.73,23.73,0,0,0-1.89,9.39V56.17a4,4,0,0,0,1.28,3,4.29,4.29,0,0,0,3.09,1.23,3.86,3.86,0,0,0,2.89-1.21,4.1,4.1,0,0,0,1.18-3V39.24a15.61,15.61,0,0,1,1.25-6.2A16.29,16.29,0,0,1,338,27.91a16.06,16.06,0,0,1,8-4.34,4.14,4.14,0,0,0,3.2-4.1h0a4.29,4.29,0,0,0-5.3-4.13A24.52,24.52,0,0,0,339.86,16.65Z"/><path class="cls-1" d="M364.19,16.65A24.21,24.21,0,0,0,356.37,22a25.1,25.1,0,0,0-5.28,7.87,23.72,23.72,0,0,0-1.88,9.39V56.17a4,4,0,0,0,1.27,3,4.29,4.29,0,0,0,3.09,1.23,3.84,3.84,0,0,0,2.89-1.21,4.1,4.1,0,0,0,1.18-3V39.24a15.61,15.61,0,0,1,1.25-6.2,16.29,16.29,0,0,1,3.46-5.13,16.06,16.06,0,0,1,8-4.34,4.14,4.14,0,0,0,3.2-4.1h0a4.29,4.29,0,0,0-5.3-4.13A24.52,24.52,0,0,0,364.19,16.65Z"/><path class="cls-1" d="M148.39,37.57a23,23,0,0,1,1.81-9.07,23.33,23.33,0,0,1,5.05-7.5,24,24,0,0,1,7.53-5,23.42,23.42,0,0,1,18,0,23.55,23.55,0,0,1,7.48,5,22.93,22.93,0,0,1,5.05,7.43,23.24,23.24,0,0,1,1.87,9V56a4.26,4.26,0,0,1-1.25,3.09,4.22,4.22,0,0,1-3.12,1.28,3.83,3.83,0,0,1-2.94-1.28A4.37,4.37,0,0,1,186.65,56l-.05-1a25.64,25.64,0,0,1-6.94,4.39,20,20,0,0,1-7.88,1.6,22.79,22.79,0,0,1-9-1.82,23.61,23.61,0,0,1-12.58-12.58A22.82,22.82,0,0,1,148.39,37.57Zm8.43,0A14.51,14.51,0,0,0,158,43.29a15.36,15.36,0,0,0,8,8.07,14.72,14.72,0,0,0,11.55,0,14.8,14.8,0,0,0,4.78-3.29,14.47,14.47,0,0,0,3.19-4.78,15.14,15.14,0,0,0,0-11.48A14.47,14.47,0,0,0,182.33,27a14.88,14.88,0,0,0-21.09,0A14.36,14.36,0,0,0,158,31.81,14.64,14.64,0,0,0,156.82,37.57Z"/><path class="cls-1" d="M205.05,57.84a3.58,3.58,0,0,1-.35-1.62v-25a16.07,16.07,0,0,1,1.38-6.6,17,17,0,0,1,3.82-5.47,18.2,18.2,0,0,1,5.6-3.68,17.3,17.3,0,0,1,14,.32,18.29,18.29,0,0,1,6,4.49,18.71,18.71,0,0,1,6.06-4.49,17.47,17.47,0,0,1,13.93-.37A17.5,17.5,0,0,1,261,19a16.89,16.89,0,0,1,3.8,5.3,17.1,17.1,0,0,1,1.55,6.43,1.77,1.77,0,0,1,.05.49v25a4,4,0,0,1-1.23,3,4,4,0,0,1-2.94,1.21,4.11,4.11,0,0,1-3-1.23,3.82,3.82,0,0,1-1.28-2.94V31.1a9.15,9.15,0,0,0-.84-3.41,7.69,7.69,0,0,0-2-2.67,9.14,9.14,0,0,0-2.89-1.74,9.46,9.46,0,0,0-3.38-.62,9.27,9.27,0,0,0-3.44.66,8.82,8.82,0,0,0-2.89,1.84,9.79,9.79,0,0,0-2,2.8,8.18,8.18,0,0,0-.78,3.29v25a4,4,0,0,1-1.2,3,4,4,0,0,1-2.92,1.21,4.11,4.11,0,0,1-3-1.23,3.89,3.89,0,0,1-1.33-2.94V31.05a8.88,8.88,0,0,0-.83-3.34,8.61,8.61,0,0,0-4.78-4.43,9.33,9.33,0,0,0-3.37-.62,9.19,9.19,0,0,0-6.37,2.5,9.36,9.36,0,0,0-2,2.8,7.67,7.67,0,0,0-.74,3.29v25a4,4,0,0,1-1.2,3A4,4,0,0,1,209,60.39a3.9,3.9,0,0,1-1.67-.35A4,4,0,0,1,205.05,57.84Z"/><circle class="cls-1" cx="62.16" cy="19.01" r="4.25"/><path class="cls-1" d="M141.94,28.4A22.94,22.94,0,0,0,136.82,21a24.26,24.26,0,0,0-7.54-5,22.64,22.64,0,0,0-9-1.79,22.94,22.94,0,0,0-9,1.79,23.65,23.65,0,0,0-7.56,5,23.33,23.33,0,0,0-5,7.5,23.41,23.41,0,0,0,0,18.1,23.49,23.49,0,0,0,5,7.51,24,24,0,0,0,7.56,5,22.79,22.79,0,0,0,9,1.82,24.81,24.81,0,0,0,9.32-1.72,18.46,18.46,0,0,0,6.13-4.12,4.23,4.23,0,0,0,1.62-3.24,4.31,4.31,0,0,0-.73-2.4,4.38,4.38,0,0,0-2-1.77,4.46,4.46,0,0,0-1.38-.24,5.1,5.1,0,0,0-2.89,1.07,11.27,11.27,0,0,1-4.34,2.95,15.69,15.69,0,0,1-5.29,1h-.43a14.74,14.74,0,0,1-4.88-.81,13.75,13.75,0,0,1-4.19-2.33,14.46,14.46,0,0,1-3.1-3.39l-.06-.09-.06-.08-.13-.23A14.79,14.79,0,0,1,107,31.16a12.69,12.69,0,0,1,.73-1.48,13.6,13.6,0,0,1,7.51-6.13,14.28,14.28,0,0,1,3.43-.78l.36-.05h.29c.38,0,.76-.06,1.14-.06l.26,0h0a16.19,16.19,0,0,1,4.94.83,14.23,14.23,0,0,1,4.44,2.4,13.61,13.61,0,0,1,3.24,3.73,14,14,0,0,1,1.72,4.71h-18l-.45,0a3.41,3.41,0,0,0-2.85,3.44v.12a3.3,3.3,0,0,0,3.3,3.47h22.6a4.11,4.11,0,0,0,3-1.13,3.89,3.89,0,0,0,1.15-2.89A23,23,0,0,0,141.94,28.4Z"/><path class="cls-1" d="M316.71,28.4A22.94,22.94,0,0,0,311.59,21a24.26,24.26,0,0,0-7.54-5,22.64,22.64,0,0,0-8.95-1.79,22.94,22.94,0,0,0-9,1.79,23.65,23.65,0,0,0-7.56,5,23.33,23.33,0,0,0-5,7.5,23.41,23.41,0,0,0,0,18.1,23.49,23.49,0,0,0,5,7.51,24,24,0,0,0,7.56,5,22.79,22.79,0,0,0,9,1.82,24.81,24.81,0,0,0,9.32-1.72,18.46,18.46,0,0,0,6.13-4.12,4.23,4.23,0,0,0,1.62-3.24,4.31,4.31,0,0,0-.73-2.4,4.38,4.38,0,0,0-2-1.77,4.46,4.46,0,0,0-1.38-.24,5.1,5.1,0,0,0-2.89,1.07,11.27,11.27,0,0,1-4.34,2.95,15.74,15.74,0,0,1-5.29,1h-.43a14.74,14.74,0,0,1-4.88-.81A13.75,13.75,0,0,1,286,49.4a14.46,14.46,0,0,1-3.1-3.39l-.07-.09s0-.05-.05-.08l-.14-.23a14.82,14.82,0,0,1-.86-14.45,12.69,12.69,0,0,1,.73-1.48,13.6,13.6,0,0,1,7.51-6.13,14.17,14.17,0,0,1,3.43-.78l.36-.05h.29c.38,0,.76-.06,1.14-.06l.26,0h0a16.19,16.19,0,0,1,4.94.83,14.23,14.23,0,0,1,4.44,2.4,13.61,13.61,0,0,1,3.24,3.73,14,14,0,0,1,1.72,4.71h-18l-.45,0a3.41,3.41,0,0,0-2.85,3.44v.12a3.3,3.3,0,0,0,3.3,3.47h22.6a4.11,4.11,0,0,0,3-1.13,3.89,3.89,0,0,0,1.15-2.89A23,23,0,0,0,316.71,28.4Z"/><path class="cls-1" d="M388.11,54.52A1.13,1.13,0,0,1,387,53.39,10.19,10.19,0,0,0,376.8,43.21a1.13,1.13,0,0,1,0-2.25,12.45,12.45,0,0,1,12.43,12.43A1.13,1.13,0,0,1,388.11,54.52Z"/><path class="cls-1" d="M376.8,45.46a7.94,7.94,0,1,0,7.93,7.93A7.94,7.94,0,0,0,376.8,45.46Zm0,9.38a1.45,1.45,0,1,1,1.45-1.45A1.45,1.45,0,0,1,376.8,54.84Zm4.56-.33a1.12,1.12,0,0,1-1.12-1.12A3.44,3.44,0,0,0,376.8,50a1.12,1.12,0,0,1,0-2.24,5.69,5.69,0,0,1,5.69,5.68A1.12,1.12,0,0,1,381.36,54.51Z"/></g></g></svg>