<svg xmlns="http://www.w3.org/2000/svg" xmlns:xlink="http://www.w3.org/1999/xlink" viewBox="0 0 132.45 132.52"><defs><style>.cls-1{fill:url(#linear-gradient);}.cls-2{fill:url(#linear-gradient-2);}</style><linearGradient id="linear-gradient" x1="-2474.08" y1="44.09" x2="232.32" y2="44.09" gradientUnits="userSpaceOnUse"><stop offset="0" stop-color="#6211a4"/><stop offset="1" stop-color="#e20668"/></linearGradient><linearGradient id="linear-gradient-2" x1="-2474.08" y1="80.89" x2="232.32" y2="80.89" xlink:href="#linear-gradient"/></defs><g id="Layer_2" data-name="Layer 2"><g id="Layer_1-2" data-name="Layer 1"><path class="cls-1" d="M125.14,88.17a7.31,7.31,0,0,1-7.31-7.31A66.31,66.31,0,0,0,51.59,14.62,7.31,7.31,0,0,1,51.59,0a81,81,0,0,1,80.86,80.86A7.31,7.31,0,0,1,125.14,88.17Z"/><path class="cls-2" d="M51.6,29.25a51.64,51.64,0,1,0,51.59,51.6A51.64,51.64,0,0,0,51.6,29.25Zm0,61A9.39,9.39,0,1,1,61,80.85,9.45,9.45,0,0,1,51.6,90.28Zm29.67-2.12A7.33,7.33,0,0,1,74,80.85,22.36,22.36,0,0,0,51.6,58.49a7.31,7.31,0,0,1,0-14.62,37,37,0,0,1,37,37A7.29,7.29,0,0,1,81.27,88.16Z"/></g></g></svg>